<svg xmlns="http://www.w3.org/2000/svg" width="512" height="512" viewBox="0 0 512 512" role="img" aria-label="Blue Belong">
  <defs>
    <linearGradient id="bg" x1="0" y1="0" x2="0" y2="1">
      <stop offset="0" stop-color="#38bdf8"/>
      <stop offset="1" stop-color="#0369a1"/>
    </linearGradient>
  </defs>
  <rect width="512" height="512" fill="url(#bg)"/>
  <g transform="translate(128,112) scale(10.6667)">
    <path d="M12 2C8.5 2 8 4.5 8 6c0 1-1 2-2 3s-2 2-2 4c0 3 2 5 5 6h6c3-1 5-3 5-6 0-2-1-3-2-4s-2-2-2-3c0-1.5-.5-4-4-4z" fill="#ffffff"/>
  </g>
  <g fill="none" stroke="#e0f2fe" stroke-width="10" stroke-linecap="round" opacity="0.85">
    <path d="M150 408 q26 -22 53 0 t53 0 t53 0"/>
    <path d="M150 440 q26 -22 53 0 t53 0 t53 0"/>
  </g>
</svg>
